<svg width="1200" height="200" viewBox="0 0 1200 200" fill="none" xmlns="http://www.w3.org/2000/svg">
<path d="M-6 210L79.3928 174.706L105.894 167.647L120.617 174.706L141.229 157.059L161.841 183.529L182.453 167.647L208.954 157.059L238.4 174.706L279.624 141.176L300.236 157.059L394.463 116.471L418.019 127.059L473.966 61.7647L485.745 84.7059L571.137 52.9412L582.916 68.8235L718.366 33.5294L727.2 52.9412L794.925 19.4118L859.706 93.5294L883.263 84.7059H909.764L936.265 61.7647L962.766 52.9412L989.268 68.8235L1021.66 44.1176L1056.99 79.4118L1133.55 19.4118L1157.11 33.5294L1216 0" stroke="#4EAE12" stroke-linecap="round"/>
</svg>
