<svg width="24" height="19" viewBox="0 0 24 19" fill="none" xmlns="http://www.w3.org/2000/svg">
<path d="M23.2969 9.7969L15.4219 17.6719C14.7188 18.375 13.5 17.8828 13.5 16.875V12.375H7.125C6.50156 12.375 6 11.8735 6 11.25V6.75002C6 6.12658 6.50156 5.62502 7.125 5.62502H13.5V1.12502C13.5 0.121895 14.7141 -0.37498 15.4219 0.328145L23.2969 8.20315C23.7328 8.64377 23.7328 9.35627 23.2969 9.7969ZM9 17.4375V15.5625C9 15.2531 8.74687 15 8.4375 15H4.5C3.67031 15 3 14.3297 3 13.5V4.50002C3 3.67033 3.67031 3.00002 4.5 3.00002H8.4375C8.74687 3.00002 9 2.7469 9 2.43752V0.562521C9 0.253145 8.74687 2.04023e-05 8.4375 2.04023e-05H4.5C2.01562 2.04023e-05 0 2.01565 0 4.50002V13.5C0 15.9844 2.01562 18 4.5 18H8.4375C8.74687 18 9 17.7469 9 17.4375Z" fill="#050520"/>
</svg>
