<svg width="80" height="80" viewBox="0 0 80 80" fill="none" xmlns="http://www.w3.org/2000/svg">
<rect width="80" height="80" rx="10" fill="white"/>
<path d="M18.5511 49.1925L16.5511 49.1925L16.5511 51.1925L18.5511 51.1925L18.5511 49.1925ZM35.286 35.286C36.067 34.505 36.067 33.2387 35.286 32.4576C34.5049 31.6766 33.2386 31.6766 32.4575 32.4576L35.286 35.286ZM16.5511 36.9359L16.5511 49.1925L20.5511 49.1925L20.5511 36.9359L16.5511 36.9359ZM18.5511 51.1925L30.8076 51.1925L30.8076 47.1925L18.5511 47.1925L18.5511 51.1925ZM19.9653 50.6067L35.286 35.286L32.4575 32.4576L17.1369 47.7783L19.9653 50.6067Z" fill="black" fill-opacity="0.84"/>
<path d="M61.4491 30.8076L61.4491 28.8076L63.4491 28.8076L63.4491 30.8076L61.4491 30.8076ZM33.754 61.331C32.973 62.1121 31.7067 62.1121 30.9256 61.331C30.1446 60.55 30.1446 59.2836 30.9256 58.5026L33.754 61.331ZM49.1925 28.8076L61.4491 28.8076L61.4491 32.8076L49.1925 32.8076L49.1925 28.8076ZM63.4491 30.8076L63.4491 43.0641L59.4491 43.0641L59.4491 30.8076L63.4491 30.8076ZM62.8633 32.2218L33.754 61.331L30.9256 58.5026L60.0348 29.3934L62.8633 32.2218Z" fill="black" fill-opacity="0.84"/>
</svg>
