<svg width="80" height="80" viewBox="0 0 80 80" fill="none" xmlns="http://www.w3.org/2000/svg">
<rect width="80" height="80" rx="10" fill="white"/>
<path d="M33.4999 20.5C27.5168 20.5 22.6666 25.3502 22.6666 31.3333C22.6666 37.3164 27.5168 42.1667 33.4999 42.1667C39.483 42.1667 44.3333 37.3164 44.3333 31.3333C44.3333 25.3502 39.483 20.5 33.4999 20.5ZM26.9999 31.3333C26.9999 27.7435 29.9101 24.8333 33.4999 24.8333C37.0898 24.8333 39.9999 27.7435 39.9999 31.3333C39.9999 34.9232 37.0898 37.8333 33.4999 37.8333C29.9101 37.8333 26.9999 34.9232 26.9999 31.3333Z" fill="black" fill-opacity="0.84"/>
<path d="M50.6348 31.8063C50.0253 31.4955 49.3508 31.3335 48.6666 31.3335V27.0001C50.035 27.0001 51.3841 27.3241 52.6032 27.9456C52.7375 28.0141 52.8698 28.086 52.9999 28.1611C54.0516 28.7683 54.9655 29.5907 55.6807 30.5762C56.4845 31.6837 57.0146 32.9659 57.2276 34.3176C57.4406 35.6694 57.3305 37.0524 56.9063 38.3534C56.482 39.6545 55.7557 40.8366 54.7868 41.8029C53.8179 42.7693 52.6339 43.4925 51.3318 43.9134C50.173 44.2878 48.9501 44.4134 47.7426 44.2839C47.5932 44.2679 47.4439 44.248 47.2951 44.2241C45.9448 44.0077 44.6649 43.4749 43.56 42.6691L43.5578 42.6675L46.1122 39.1671C46.6649 39.5704 47.3053 39.837 47.9809 39.9453C48.6565 40.0535 49.3481 40.0003 49.9991 39.7899C50.6502 39.5795 51.2422 39.2179 51.7266 38.7347C52.211 38.2515 52.5742 37.6605 52.7863 37.01C52.9984 36.3595 53.0535 35.668 52.947 34.9922C52.8405 34.3163 52.5754 33.6753 52.1736 33.1215C51.7717 32.5678 51.2444 32.1171 50.6348 31.8063Z" fill="black" fill-opacity="0.84"/>
<path d="M57.3291 59.5C57.3291 58.3624 57.1051 57.236 56.6697 56.185C56.2344 55.134 55.5963 54.179 54.7919 53.3746C53.9875 52.5703 53.0326 51.9322 51.9816 51.4968C50.9306 51.0615 49.8042 50.8374 48.6666 50.8374V46.5C50.1444 46.5 51.6097 46.752 52.9999 47.2435C53.2157 47.3198 53.4296 47.4018 53.6415 47.4896C55.2187 48.1429 56.6518 49.1005 57.859 50.3076C59.0661 51.5148 60.0237 52.9479 60.677 54.5251C60.7648 54.737 60.8468 54.9509 60.9231 55.1667C61.4146 56.5568 61.6666 58.0222 61.6666 59.5H57.3291Z" fill="black" fill-opacity="0.84"/>
<path d="M48.6666 59.5H44.3333C44.3333 53.5169 39.483 48.6667 33.4999 48.6667C27.5168 48.6667 22.6666 53.5169 22.6666 59.5H18.3333C18.3333 51.1237 25.1236 44.3333 33.4999 44.3333C41.8762 44.3333 48.6666 51.1237 48.6666 59.5Z" fill="black" fill-opacity="0.84"/>
</svg>
