<svg width="80" height="80" viewBox="0 0 80 80" fill="none" xmlns="http://www.w3.org/2000/svg">
<rect width="80" height="80" rx="10" fill="white"/>
<path d="M39.6667 61.3333C27.7005 61.3333 18 51.6328 18 39.6667C18 27.7005 27.7005 18 39.6667 18C51.6328 18 61.3333 27.7005 61.3333 39.6667C61.3202 51.6274 51.6274 61.3202 39.6667 61.3333ZM39.632 57H39.6667C49.2362 56.9904 56.9875 49.2276 56.9827 39.658C56.9779 30.0885 49.2189 22.3333 39.6493 22.3333C30.0798 22.3333 22.3208 30.0885 22.316 39.658C22.3112 49.2276 30.0625 56.9904 39.632 57ZM35.3333 50.5L26.6667 41.8333L29.7217 38.7783L35.3333 44.3683L49.6117 30.09L52.6667 33.1667L35.3333 50.5Z" fill="black" fill-opacity="0.84"/>
</svg>
