<svg width="20" height="20" viewBox="0 0 20 20" fill="none" xmlns="http://www.w3.org/2000/svg">
<path d="M9.33984 0.246098L1.21484 3.29297C0.484375 3.56641 0 4.26954 0 5.05079V13.8438C0 14.5547 0.402344 15.2031 1.03516 15.5195L9.16016 19.582C9.6875 19.8477 10.3086 19.8477 10.8359 19.582L18.9609 15.5195C19.5977 15.2031 19.9961 14.5508 19.9961 13.8438V5.05079C19.9961 4.26954 19.5117 3.57032 18.7812 3.29688L10.6562 0.250004C10.2344 0.0859419 9.76562 0.0859419 9.33984 0.246098ZM10 2.67188L17.5 5.48438V5.52735L10 8.57422L2.5 5.52735V5.48438L10 2.67188ZM11.25 16.5781V10.7617L17.5 8.22266V13.4531L11.25 16.5781Z" fill="white" fill-opacity="0.4"/>
</svg>
