<svg width="20" height="20" viewBox="0 0 20 20" fill="none" xmlns="http://www.w3.org/2000/svg">
<path d="M9.99609 0.0078125H7.49609V2.50781H9.99609V0.0078125ZM0 2.50664V5.00664H2.5V2.50664H0ZM5 0.0078125H2.5V2.50781H5V0.0078125ZM7.5 10.0039V12.5039H10V10.0039H7.5ZM0 7.50469V10.0047H2.5V7.50469H0ZM14.9941 0.0078125H12.4941V2.50781H14.9941V0.0078125ZM19.9941 0.0078125H17.4941V2.50781H19.9941V0.0078125ZM5 10.0039H2.5V12.5039H5V10.0039ZM19.9922 17.5V15H17.4922V17.5H19.9922ZM19.9922 12.5V10H17.4922V12.5H19.9922ZM14.9941 20H17.4941V17.5H14.9941V20ZM19.9941 7.50469V5.00469H17.4941V7.50469H19.9941ZM5 20H7.5V17.5H5V20ZM0 20H2.5V17.5H0V20ZM9.99609 20H12.4961V17.5H9.99609V20ZM0 12.5027V15.0027H2.5V12.5027H0ZM12.4953 5.00586V2.50586H9.99531V5.00586H12.4953ZM9.99531 10.0059H12.4953V7.50586H9.99531V10.0059ZM7.49531 15.0059V17.5059H9.99531V15.0059H7.49531ZM12.4953 12.5059H14.9953V10.0059H12.4953V12.5059ZM12.4953 7.50781H14.9953V5.00781H12.4953V7.50781ZM12.4953 15.0051V17.5051H14.9953V15.0051H12.4953ZM2.5 15.002V17.502H5V15.002H2.5ZM7.5 5.00586V2.50586H5V5.00586H7.5ZM14.9969 15.002H17.4969V12.502H14.9969V15.002ZM9.99687 7.50469V5.00469H7.49687V7.50469H9.99687ZM14.9969 2.50664V5.00664H17.4969V2.50664H14.9969ZM9.99687 12.5027V15.0027H12.4969V12.5027H9.99687ZM7.49687 7.50469H5V10.0047H7.5L7.49687 7.50469ZM14.9937 10.0047H17.4937V7.50469H14.9937V10.0047ZM5 5.00586H2.5V7.50586H5V5.00586ZM5 12.5027V15.0027H7.5V12.5027H5Z" fill="white" fill-opacity="0.4"/>
</svg>
