<svg width="32" height="32" viewBox="0 0 32 32" fill="none" xmlns="http://www.w3.org/2000/svg">
<circle cx="16" cy="16" r="16" fill="white" fill-opacity="0.2"/>
<g clip-path="url(#clip0_62_557)">
<path d="M23.7803 14.2293L23.0732 13.5222C22.7803 13.2293 22.3055 13.2293 22.0126 13.5222L21.8358 13.699L18.3002 10.1635L18.477 9.98671C18.7699 9.69381 18.7699 9.21893 18.477 8.92606L17.7699 8.21893C17.477 7.92603 17.0021 7.92603 16.7093 8.21893L12.8202 12.108C12.5273 12.4009 12.5273 12.8758 12.8202 13.1687L13.5273 13.8758C13.8202 14.1687 14.2951 14.1687 14.5879 13.8758L14.7647 13.699L16.0021 14.9364L13.4696 17.4689L13.2929 17.2922C12.9023 16.9016 12.2692 16.9016 11.8786 17.2922L8.2929 20.878C7.90237 21.2685 7.90237 21.9017 8.2929 22.2922L9.70712 23.7064C10.0976 24.0969 10.7308 24.0969 11.1213 23.7064L14.7071 20.1206C15.0976 19.7301 15.0976 19.0969 14.7071 18.7064L14.5303 18.5296L17.0628 15.9971L18.3003 17.2346L18.1235 17.4113C17.8306 17.7042 17.8306 18.1791 18.1235 18.472L18.8306 19.1791C19.1235 19.472 19.5984 19.472 19.8912 19.1791L23.7803 15.29C24.0732 14.9971 24.0732 14.5222 23.7803 14.2293Z" fill="white"/>
</g>
<defs>
<clipPath id="clip0_62_557">
<rect width="16" height="16" fill="white" transform="translate(8 8)"/>
</clipPath>
</defs>
</svg>
