<svg width="156" height="80" viewBox="0 0 156 80" fill="none" xmlns="http://www.w3.org/2000/svg">
<path d="M0 27V52.1169H16.4829V34.849H10.9886V27H0Z" fill="white"/>
<path fill-rule="evenodd" clip-rule="evenodd" d="M90.3697 52.1169C87.8812 52.1169 85.6371 51.582 83.6371 50.5122C81.6369 49.4191 80.0671 47.9191 78.9277 46.0121C77.7881 44.0818 77.2182 41.9306 77.2182 39.5584C77.2182 37.1863 77.7881 35.0467 78.9277 33.1397C80.0671 31.2094 81.6369 29.7094 83.6371 28.6396C85.6371 27.5465 87.8812 27 90.3697 27C92.8581 27 95.1023 27.5465 97.1025 28.6396C99.1025 29.7094 100.672 31.1978 101.812 33.1048C102.951 35.0118 103.521 37.163 103.521 39.5584C103.521 41.9538 102.951 44.105 101.812 46.0121C100.672 47.9191 99.1025 49.4191 97.1025 50.5122C95.1023 51.582 92.8581 52.1169 90.3697 52.1169ZM90.3697 48.14C91.9975 48.14 93.4627 47.7795 94.7652 47.0586C96.0675 46.3144 97.0908 45.2911 97.8351 43.9888C98.5791 42.6632 98.9513 41.1864 98.9513 39.5584C98.9513 37.9305 98.5791 36.4653 97.8351 35.163C97.0908 33.8374 96.0675 32.8141 94.7652 32.0931C93.4627 31.3489 91.9975 30.9768 90.3697 30.9768C88.7418 30.9768 87.2766 31.3489 85.9742 32.0931C84.6719 32.8141 83.6486 33.8374 82.9045 35.163C82.1602 36.4653 81.7881 37.9305 81.7881 39.5584C81.7881 41.1864 82.1602 42.6632 82.9045 43.9888C83.6486 45.2911 84.6719 46.3144 85.9742 47.0586C87.2766 47.7795 88.7418 48.14 90.3697 48.14Z" fill="white"/>
<path fill-rule="evenodd" clip-rule="evenodd" d="M52.4962 41.3027C51.7056 40.2561 50.6357 39.5119 49.2869 39.07C50.2637 38.5584 51.0312 37.8375 51.5893 36.9072C52.1474 35.977 52.4265 34.9072 52.4265 33.6978C52.4265 31.721 51.6474 30.1745 50.0892 29.0582C48.531 27.9186 46.3101 27.3488 43.4263 27.3488H31.9842V51.768H44.124C47.2403 51.768 49.6125 51.1982 51.2404 50.0587C52.8684 48.8959 53.6823 47.2563 53.6823 45.14C53.6823 43.605 53.287 42.3259 52.4962 41.3027ZM36.5192 37.6398V30.9071H42.9379C44.5193 30.9071 45.7287 31.1978 46.5659 31.7792C47.4264 32.3373 47.8566 33.1746 47.8566 34.2909C47.8566 35.3839 47.4264 36.2211 46.5659 36.8026C45.7287 37.3607 44.5193 37.6398 42.9379 37.6398H36.5192ZM49.1125 44.6865C49.1125 47.0353 47.3566 48.2098 43.8449 48.2098H36.5192V41.1631H43.8449C47.3566 41.1631 49.1125 42.3376 49.1125 44.6865Z" fill="white"/>
<path d="M63.0574 27.3488H58.5223V51.768H75.825V47.9307H63.0574V27.3488Z" fill="white"/>
<path d="M112.933 50.5122C114.933 51.582 117.166 52.1169 119.631 52.1169C121.631 52.1169 123.456 51.768 125.108 51.0703C126.782 50.3726 128.189 49.361 129.329 48.0354L126.398 45.2446C124.631 47.1749 122.456 48.14 119.875 48.14C118.201 48.14 116.7 47.7795 115.375 47.0586C114.049 46.3144 113.014 45.2911 112.27 43.9888C111.526 42.6864 111.154 41.2096 111.154 39.5584C111.154 37.9072 111.526 36.4304 112.27 35.1281C113.014 33.8257 114.049 32.8141 115.375 32.0931C116.7 31.3489 118.201 30.9768 119.875 30.9768C122.456 30.9768 124.631 31.9303 126.398 33.8374L129.329 31.0815C128.189 29.7559 126.794 28.7442 125.142 28.0465C123.491 27.3488 121.666 27 119.666 27C117.2 27 114.968 27.5465 112.968 28.6396C110.991 29.7094 109.433 31.1978 108.293 33.1048C107.154 35.0118 106.584 37.163 106.584 39.5584C106.584 41.9538 107.142 44.105 108.258 46.0121C109.398 47.9191 110.956 49.4191 112.933 50.5122Z" fill="white"/>
<path d="M142.081 41.5468L138.209 45.5237V51.768H133.674V27.3488H138.209V39.8724L150.279 27.3488H155.372L145.116 38.2677L156 51.768H150.698L142.081 41.5468Z" fill="white"/>
<path d="M25.396 27.3489V51.768H20.8609V31.1513H15.698V27.3489H25.396Z" fill="white"/>
</svg>
