<svg width="134" height="24" viewBox="0 0 134 24" fill="none" xmlns="http://www.w3.org/2000/svg">
<g clip-path="url(#clip0_686_1728)">
<path d="M5.90226 7.03751L4.54184 9.79584L1.49809 10.2396C0.952256 10.3188 0.733506 10.9917 1.12934 11.3771L3.33142 13.5229L2.81059 16.5542C2.71684 17.1021 3.29392 17.5125 3.77726 17.2563L6.50017 15.825L9.22309 17.2563C9.70642 17.5104 10.2835 17.1021 10.1898 16.5542L9.66892 13.5229L11.871 11.3771C12.2668 10.9917 12.0481 10.3188 11.5023 10.2396L8.45851 9.79584L7.09809 7.03751C6.85434 6.54584 6.14809 6.53959 5.90226 7.03751Z" fill="#4EAE12"/>
</g>
<path d="M23.5429 16H25.5589L26.7209 12.192C26.7349 12.206 26.9869 10.988 26.9869 10.988H27.0989L27.3229 12.178L28.5969 16H30.6129L33.4689 6.088H31.3549L29.9129 11.282L29.6469 13.676H29.5209L29.1149 11.282L27.9109 7.46H26.2449C25.6849 9.238 25.5309 9.448 24.9849 11.254L24.6489 13.578H24.5229L24.2149 11.268L22.8009 6.088H20.6729L23.5429 16ZM38.1071 6.088H36.1331L32.6611 16H34.8591L35.6851 13.732H38.6391L39.5071 16H41.6631L38.1071 6.088ZM36.7631 9.7L37.0711 8.272H37.1691L37.4771 9.686L38.1071 11.842H36.2031L36.7631 9.7ZM44.5022 6.088H42.4442V16H44.5022V6.088ZM53.343 8.146V6.074H45.587V8.146H48.429V16H50.501V8.146H53.343ZM54.4207 16H60.7627V13.928H56.4787V6.088H54.4207V16ZM63.9026 6.088H61.8446V16H63.9026V6.088ZM65.1413 14.25C65.9813 15.51 67.2973 16.14 68.5853 16.14C70.3913 16.14 72.1833 15.132 72.3513 13.27C72.4493 10.932 70.7693 10.302 69.0473 9.98C68.1793 9.798 67.3533 9.686 67.3393 8.874V8.86C67.3813 8.174 68.0673 7.88 68.8513 7.88C69.4953 7.88 70.0833 8.174 70.5033 8.818L72.1973 7.684C71.3713 6.438 70.1393 5.934 68.8513 5.934C67.0733 5.934 65.3513 6.914 65.2393 8.79C65.2113 10.974 66.8213 11.702 68.3753 11.94C69.3973 12.08 70.3213 12.276 70.2793 13.13C70.1953 14.516 67.5913 14.488 66.6953 13.06L65.1413 14.25ZM80.7004 8.146V6.074H72.9444V8.146H75.7864V16H77.8584V8.146H80.7004ZM86.2151 6.088H84.1571V16H86.2151V6.088ZM87.4538 14.25C88.2938 15.51 89.6098 16.14 90.8978 16.14C92.7038 16.14 94.4958 15.132 94.6638 13.27C94.7618 10.932 93.0818 10.302 91.3598 9.98C90.4918 9.798 89.6658 9.686 89.6518 8.874V8.86C89.6938 8.174 90.3798 7.88 91.1638 7.88C91.8078 7.88 92.3958 8.174 92.8158 8.818L94.5098 7.684C93.6838 6.438 92.4518 5.934 91.1638 5.934C89.3858 5.934 87.6638 6.914 87.5518 8.79C87.5238 10.974 89.1338 11.702 90.6878 11.94C91.7098 12.08 92.6338 12.276 92.5918 13.13C92.5078 14.516 89.9038 14.488 89.0078 13.06L87.4538 14.25ZM98.3422 12.85C98.3422 15.062 100.372 16.154 102.402 16.154C104.432 16.154 106.462 15.048 106.462 12.85V9.252C106.462 7.054 104.432 5.948 102.402 5.948C100.372 5.934 98.3422 7.04 98.3422 9.252V12.85ZM100.386 9.252C100.386 8.426 101.394 7.992 102.388 7.992C103.396 7.978 104.404 8.398 104.404 9.252V12.85C104.404 13.676 103.41 14.082 102.402 14.096C101.394 14.096 100.386 13.69 100.386 12.85V9.252ZM107.932 16H109.976V12.934H111.852C116.528 12.934 116.584 6.102 111.838 6.088H107.932V16ZM109.976 11.002V8.16H111.838C113.868 8.16 113.84 11.002 111.838 11.002H109.976ZM118.645 8.09H123.293V6.074H116.573V16H123.293V13.998H118.645V12.038H122.915V10.036H118.645V8.09ZM130.601 13.284L129.901 11.492L126.765 6.088H124.735V16H126.807V11.17L126.541 9.476L126.681 9.448L127.283 10.792L130.307 16H132.505V6.088H130.447V11.156C130.461 11.366 130.629 12.612 130.741 13.256L130.601 13.284Z" fill="#4EAE12"/>
<defs>
<clipPath id="clip0_686_1728">
<rect width="12" height="12" fill="white" transform="translate(0.5 6)"/>
</clipPath>
</defs>
</svg>
