<svg width="106" height="24" viewBox="0 0 106 24" fill="none" xmlns="http://www.w3.org/2000/svg">
<g clip-path="url(#clip0_34_407)">
<path d="M5.90226 7.03751L4.54184 9.79584L1.49809 10.2396C0.952256 10.3188 0.733506 10.9917 1.12934 11.3771L3.33142 13.5229L2.81059 16.5542C2.71684 17.1021 3.29392 17.5125 3.77726 17.2563L6.50017 15.825L9.22309 17.2563C9.70642 17.5104 10.2835 17.1021 10.1898 16.5542L9.66892 13.5229L11.871 11.3771C12.2668 10.9917 12.0481 10.3188 11.5023 10.2396L8.45851 9.79584L7.09809 7.03751C6.85434 6.54584 6.14809 6.53959 5.90226 7.03751Z" fill="#4EAE12"/>
</g>
<path d="M26.0945 9.78267H27.8629C27.8374 8.22727 26.5589 7.15341 24.6158 7.15341C22.7024 7.15341 21.3004 8.21023 21.3089 9.79545C21.3047 11.0824 22.2124 11.8196 23.6868 12.1733L24.6371 12.4119C25.5874 12.642 26.1158 12.9148 26.12 13.5028C26.1158 14.142 25.5107 14.5767 24.5732 14.5767C23.6143 14.5767 22.924 14.1335 22.8643 13.2599H21.0788C21.1257 15.1477 22.4766 16.1236 24.5945 16.1236C26.7251 16.1236 27.978 15.1051 27.9822 13.5071C27.978 12.054 26.8828 11.2827 25.3658 10.9418L24.5817 10.7543C23.8232 10.5795 23.1882 10.2983 23.201 9.67188C23.201 9.10938 23.6996 8.69602 24.603 8.69602C25.4851 8.69602 26.0263 9.09659 26.0945 9.78267ZM30.5284 16L31.1761 14.0099H34.3253L34.973 16H36.9503L33.9418 7.27273H31.5639L28.5511 16H30.5284ZM31.6449 12.5696L32.7188 9.26705H32.7869L33.8608 12.5696H31.6449ZM38.0007 16H43.5874V14.4787H39.8459V7.27273H38.0007V16ZM44.8093 16H50.707V14.4787H46.6545V12.3949H50.3874V10.8736H46.6545V8.79403H50.69V7.27273H44.8093V16ZM56.7795 7.27273H54.9343V16H56.7795V7.27273ZM63.032 9.78267H64.8004C64.7749 8.22727 63.4964 7.15341 61.5533 7.15341C59.6399 7.15341 58.2379 8.21023 58.2464 9.79545C58.2422 11.0824 59.1499 11.8196 60.6243 12.1733L61.5746 12.4119C62.5249 12.642 63.0533 12.9148 63.0575 13.5028C63.0533 14.142 62.4482 14.5767 61.5107 14.5767C60.5518 14.5767 59.8615 14.1335 59.8018 13.2599H58.0163C58.0632 15.1477 59.4141 16.1236 61.532 16.1236C63.6626 16.1236 64.9155 15.1051 64.9197 13.5071C64.9155 12.054 63.8203 11.2827 62.3033 10.9418L61.5192 10.7543C60.7607 10.5795 60.1257 10.2983 60.1385 9.67188C60.1385 9.10938 60.6371 8.69602 61.5405 8.69602C62.4226 8.69602 62.9638 9.09659 63.032 9.78267ZM76.9581 11.6364C76.9581 8.78125 75.1854 7.15341 72.8714 7.15341C70.5447 7.15341 68.7848 8.78125 68.7848 11.6364C68.7848 14.4787 70.5447 16.1193 72.8714 16.1193C75.1854 16.1193 76.9581 14.4915 76.9581 11.6364ZM75.0874 11.6364C75.0874 13.4858 74.2095 14.4872 72.8714 14.4872C71.5291 14.4872 70.6555 13.4858 70.6555 11.6364C70.6555 9.78693 71.5291 8.78551 72.8714 8.78551C74.2095 8.78551 75.0874 9.78693 75.0874 11.6364ZM78.3249 16H80.1701V13.1705H81.7212C83.7283 13.1705 84.896 11.973 84.896 10.2301C84.896 8.49574 83.7496 7.27273 81.7681 7.27273H78.3249V16ZM80.1701 11.6918V8.78125H81.4144C82.4798 8.78125 82.9954 9.3608 82.9954 10.2301C82.9954 11.0952 82.4798 11.6918 81.4229 11.6918H80.1701ZM86.0945 16H91.9922V14.4787H87.9396V12.3949H91.6726V10.8736H87.9396V8.79403H91.9751V7.27273H86.0945V16ZM100.742 7.27273H98.9052V12.7614H98.8285L95.0614 7.27273H93.4421V16H95.2873V10.5071H95.3512L99.1481 16H100.742V7.27273ZM104.401 7.27273H102.505L102.675 13.3835H104.235L104.401 7.27273ZM103.455 16.1108C104.001 16.1108 104.474 15.6548 104.478 15.0881C104.474 14.5298 104.001 14.0739 103.455 14.0739C102.893 14.0739 102.428 14.5298 102.433 15.0881C102.428 15.6548 102.893 16.1108 103.455 16.1108Z" fill="#4EAE12"/>
<defs>
<clipPath id="clip0_34_407">
<rect width="12" height="12" fill="white" transform="translate(0.5 6)"/>
</clipPath>
</defs>
</svg>
