<svg width="12" height="12" viewBox="0 0 12 12" fill="none" xmlns="http://www.w3.org/2000/svg">
<path d="M8.085 6L11.2122 2.87281C11.5959 2.48906 11.5959 1.86687 11.2122 1.48281L10.5172 0.787813C10.1334 0.404063 9.51125 0.404063 9.12719 0.787813L6 3.915L2.87281 0.787813C2.48906 0.404063 1.86688 0.404063 1.48281 0.787813L0.787813 1.48281C0.404063 1.86656 0.404063 2.48875 0.787813 2.87281L3.915 6L0.787813 9.12719C0.404063 9.51094 0.404063 10.1331 0.787813 10.5172L1.48281 11.2122C1.86656 11.5959 2.48906 11.5959 2.87281 11.2122L6 8.085L9.12719 11.2122C9.51094 11.5959 10.1334 11.5959 10.5172 11.2122L11.2122 10.5172C11.5959 10.1334 11.5959 9.51125 11.2122 9.12719L8.085 6Z" fill="white"/>
</svg>
