<svg width="200" height="46" viewBox="0 0 200 46" fill="none" xmlns="http://www.w3.org/2000/svg">
<path d="M-6 51L8.46506 42.5966L12.9542 40.916L15.4482 42.5966L18.9398 38.395L22.4313 44.6975L25.9229 40.916L30.412 38.395L35.4 42.5966L42.3831 34.6134L45.8747 38.395L61.8361 28.7311L65.8265 31.2521L75.3036 15.7059L77.2988 21.1681L91.7639 13.605L93.759 17.3866L116.704 8.98319L118.2 13.605L129.672 5.62185L140.646 23.2689L144.636 21.1681H149.125L153.614 15.7059L158.104 13.605L162.593 17.3866L168.08 11.5042L174.065 19.9076L187.034 5.62185L191.024 8.98319L201 1" stroke="#4EAE12" stroke-linecap="round"/>
</svg>
