<svg width="10" height="8" viewBox="0 0 10 8" fill="none" xmlns="http://www.w3.org/2000/svg">
<path d="M6.5 5.25H7.25C7.375 5.25 7.5 5.125 7.5 5V2.375C7.5 2.25 7.375 2.125 7.25 2.125H6.5C6.375 2.125 6.25 2.25 6.25 2.375V5C6.25 5.125 6.375 5.25 6.5 5.25ZM8.375 5.25H9.125C9.25 5.25 9.375 5.125 9.375 5V0.5C9.375 0.375 9.25 0.25 9.125 0.25H8.375C8.25 0.25 8.125 0.375 8.125 0.5V5C8.125 5.125 8.25 5.25 8.375 5.25ZM2.75 5.25H3.5C3.625 5.25 3.75 5.125 3.75 5V3.625C3.75 3.5 3.625 3.375 3.5 3.375H2.75C2.625 3.375 2.5 3.5 2.5 3.625V5C2.5 5.125 2.625 5.25 2.75 5.25ZM4.625 5.25H5.375C5.5 5.25 5.625 5.125 5.625 5V1.125C5.625 1 5.5 0.875 5.375 0.875H4.625C4.5 0.875 4.375 1 4.375 1.125V5C4.375 5.125 4.5 5.25 4.625 5.25ZM9.6875 6.5H1.25V0.5625C1.25 0.389844 1.11016 0.25 0.9375 0.25H0.3125C0.139844 0.25 0 0.389844 0 0.5625V7.125C0 7.47012 0.279883 7.75 0.625 7.75H9.6875C9.86016 7.75 10 7.61016 10 7.4375V6.8125C10 6.63984 9.86016 6.5 9.6875 6.5Z" fill="white" fill-opacity="0.4"/>
</svg>
