<svg width="16" height="16" viewBox="0 0 16 16" fill="none" xmlns="http://www.w3.org/2000/svg">
<path d="M8 0.25C3.71875 0.25 0.25 3.71875 0.25 8C0.25 12.2812 3.71875 15.75 8 15.75C12.2812 15.75 15.75 12.2812 15.75 8C15.75 3.71875 12.2812 0.25 8 0.25ZM8 3.25C9.51875 3.25 10.75 4.48125 10.75 6C10.75 7.51875 9.51875 8.75 8 8.75C6.48125 8.75 5.25 7.51875 5.25 6C5.25 4.48125 6.48125 3.25 8 3.25ZM8 14C6.16563 14 4.52187 13.1687 3.42188 11.8687C4.00938 10.7625 5.15938 10 6.5 10C6.575 10 6.65 10.0125 6.72188 10.0344C7.12813 10.1656 7.55312 10.25 8 10.25C8.44687 10.25 8.875 10.1656 9.27812 10.0344C9.35 10.0125 9.425 10 9.5 10C10.8406 10 11.9906 10.7625 12.5781 11.8687C11.4781 13.1687 9.83438 14 8 14Z" fill="#787888"/>
</svg>
