<svg width="12" height="10" viewBox="0 0 12 10" fill="none" xmlns="http://www.w3.org/2000/svg">
<path d="M11 0.333344H1C0.447917 0.333344 0 0.78126 0 1.33334V8.66668C0 9.21876 0.447917 9.66668 1 9.66668H11C11.5521 9.66668 12 9.21876 12 8.66668V1.33334C12 0.78126 11.5521 0.333344 11 0.333344ZM3.66667 2.33334C4.40208 2.33334 5 2.93126 5 3.66668C5 4.40209 4.40208 5.00001 3.66667 5.00001C2.93125 5.00001 2.33333 4.40209 2.33333 3.66668C2.33333 2.93126 2.93125 2.33334 3.66667 2.33334ZM6 7.26668C6 7.48751 5.79167 7.66668 5.53333 7.66668H1.8C1.54167 7.66668 1.33333 7.48751 1.33333 7.26668V6.86668C1.33333 6.20418 1.96042 5.66668 2.73333 5.66668H2.8375C3.09375 5.77293 3.37292 5.83334 3.66667 5.83334C3.96042 5.83334 4.24167 5.77293 4.49583 5.66668H4.6C5.37292 5.66668 6 6.20418 6 6.86668V7.26668ZM10.6667 6.16668C10.6667 6.25834 10.5917 6.33334 10.5 6.33334H7.5C7.40833 6.33334 7.33333 6.25834 7.33333 6.16668V5.83334C7.33333 5.74168 7.40833 5.66668 7.5 5.66668H10.5C10.5917 5.66668 10.6667 5.74168 10.6667 5.83334V6.16668ZM10.6667 4.83334C10.6667 4.92501 10.5917 5.00001 10.5 5.00001H7.5C7.40833 5.00001 7.33333 4.92501 7.33333 4.83334V4.50001C7.33333 4.40834 7.40833 4.33334 7.5 4.33334H10.5C10.5917 4.33334 10.6667 4.40834 10.6667 4.50001V4.83334ZM10.6667 3.50001C10.6667 3.59168 10.5917 3.66668 10.5 3.66668H7.5C7.40833 3.66668 7.33333 3.59168 7.33333 3.50001V3.16668C7.33333 3.07501 7.40833 3.00001 7.5 3.00001H10.5C10.5917 3.00001 10.6667 3.07501 10.6667 3.16668V3.50001Z" fill="white"/>
</svg>
