<svg width="47" height="47" viewBox="0 0 47 47" fill="none" xmlns="http://www.w3.org/2000/svg">

<path fill-rule="evenodd" clip-rule="evenodd" d="M1.62868 1.37868C0.75 2.25736 0.75 3.67157 0.75 6.5V10.3438C0.75 10.7219 0.75 10.9109 0.800472 11.0637C0.899798 11.3643 1.13565 11.6002 1.43632 11.6995C1.5891 11.75 1.77815 11.75 2.15625 11.75H2.625C3.32198 11.75 3.67047 11.75 3.96027 11.8076C5.15034 12.0444 6.08064 12.9747 6.31736 14.1647C6.375 14.4545 6.375 14.803 6.375 15.5C6.375 16.197 6.375 16.5455 6.31736 16.8353C6.08064 18.0253 5.15034 18.9556 3.96027 19.1924C3.67047 19.25 3.32198 19.25 2.625 19.25H2.15625C1.77815 19.25 1.5891 19.25 1.43632 19.3005C1.13565 19.3998 0.899798 19.6357 0.800472 19.9363C0.75 20.0891 0.75 20.2781 0.75 20.6562V24.5C0.75 27.3284 0.75 28.7426 1.62868 29.6213C2.50736 30.5 3.92157 30.5 6.75 30.5H32.25C35.0784 30.5 36.4926 30.5 37.3713 29.6213C38.25 28.7426 38.25 27.3284 38.25 24.5V20.6562C38.25 20.2781 38.25 20.0891 38.1995 19.9363C38.1002 19.6357 37.8643 19.3998 37.5637 19.3005C37.4109 19.25 37.2219 19.25 36.8438 19.25H36.375C35.678 19.25 35.3295 19.25 35.0397 19.1924C33.8497 18.9556 32.9194 18.0253 32.6826 16.8353C32.625 16.5455 32.625 16.197 32.625 15.5C32.625 14.803 32.625 14.4545 32.6826 14.1647C32.9194 12.9747 33.8497 12.0444 35.0397 11.8076C35.3295 11.75 35.678 11.75 36.375 11.75H36.8438C37.2219 11.75 37.4109 11.75 37.5637 11.6995C37.8643 11.6002 38.1002 11.3643 38.1995 11.0637C38.25 10.9109 38.25 10.7219 38.25 10.3438V6.5C38.25 3.67157 38.25 2.25736 37.3713 1.37868C36.4926 0.5 35.0784 0.5 32.25 0.5H6.75C3.92157 0.5 2.50736 0.5 1.62868 1.37868ZM19.3979 11.7611C19.1418 11.8177 18.9842 12.2255 18.6689 13.041C18.4897 13.5048 18.4 13.7367 18.2323 13.8945C18.1853 13.9387 18.1342 13.9781 18.0798 14.0121C17.886 14.1334 17.644 14.1559 17.16 14.2008C16.3406 14.277 15.931 14.3151 15.8059 14.5575C15.78 14.6077 15.7624 14.662 15.7538 14.7183C15.7123 14.9899 16.0135 15.2742 16.6158 15.8429L16.783 16.0008L16.7831 16.0008C17.0646 16.2667 17.2054 16.3996 17.2869 16.5655C17.3357 16.665 17.3685 16.7722 17.3838 16.8827C17.4094 17.067 17.3682 17.2599 17.2857 17.6456L17.2563 17.7834C17.1084 18.4751 17.0344 18.8209 17.1267 18.9909C17.2097 19.1436 17.3624 19.2414 17.5311 19.2497C17.7189 19.259 17.9835 19.0353 18.5128 18.5877C18.8615 18.2928 19.0358 18.1454 19.2293 18.0878C19.4062 18.0352 19.5938 18.0352 19.7707 18.0878C19.9642 18.1454 20.1385 18.2928 20.4872 18.5877C21.0165 19.0353 21.2811 19.259 21.4689 19.2497C21.6376 19.2414 21.7903 19.1436 21.8733 18.9909C21.9656 18.8209 21.8916 18.4751 21.7437 17.7834L21.7143 17.6456C21.6318 17.2599 21.5906 17.067 21.6162 16.8827C21.6315 16.7722 21.6643 16.665 21.7131 16.5655C21.7946 16.3996 21.9354 16.2667 22.217 16.0008L22.3842 15.8429C22.9865 15.2742 23.2877 14.9899 23.2462 14.7183C23.2376 14.662 23.22 14.6077 23.1941 14.5575C23.069 14.3151 22.6594 14.277 21.84 14.2008C21.356 14.1559 21.114 14.1334 20.9202 14.0121C20.8658 13.9781 20.8147 13.9387 20.7677 13.8945C20.6 13.7367 20.5103 13.5048 20.3311 13.041C20.0158 12.2255 19.8582 11.8177 19.6021 11.7611C19.5348 11.7463 19.4652 11.7463 19.3979 11.7611Z" fill="#050520"/>

</svg>

