<svg width="44" height="40" viewBox="0 0 44 40" fill="none" xmlns="http://www.w3.org/2000/svg">
<path d="M15.4999 0.5C9.51683 0.5 4.66659 5.35025 4.66659 11.3333C4.66659 17.3164 9.51683 22.1667 15.4999 22.1667C21.483 22.1667 26.3333 17.3164 26.3333 11.3333C26.3333 5.35025 21.483 0.5 15.4999 0.5ZM8.99992 11.3333C8.99992 7.74348 11.9101 4.83333 15.4999 4.83333C19.0898 4.83333 21.9999 7.74348 21.9999 11.3333C21.9999 14.9232 19.0898 17.8333 15.4999 17.8333C11.9101 17.8333 8.99992 14.9232 8.99992 11.3333Z" fill="black" fill-opacity="0.84"/>
<path d="M32.6348 11.8063C32.0253 11.4955 31.3508 11.3335 30.6666 11.3335V7.00013C32.035 7.00013 33.3841 7.32406 34.6032 7.94564C34.7375 8.0141 34.8698 8.08596 34.9999 8.16111C36.0516 8.7683 36.9655 9.59066 37.6807 10.5762C38.4845 11.6837 39.0146 12.9659 39.2276 14.3176C39.4406 15.6694 39.3305 17.0524 38.9063 18.3534C38.482 19.6545 37.7557 20.8366 36.7868 21.8029C35.8179 22.7693 34.6339 23.4925 33.3318 23.9134C32.173 24.2878 30.9501 24.4134 29.7426 24.2839C29.5932 24.2679 29.4439 24.248 29.2951 24.2241C27.9448 24.0077 26.6649 23.4749 25.56 22.6691L25.5578 22.6675L28.1122 19.1671C28.6649 19.5704 29.3053 19.837 29.9809 19.9453C30.6565 20.0535 31.3481 20.0003 31.9991 19.7899C32.6502 19.5795 33.2422 19.2179 33.7266 18.7347C34.2111 18.2515 34.5742 17.6605 34.7863 17.01C34.9984 16.3595 35.0535 15.668 34.947 14.9922C34.8405 14.3163 34.5754 13.6753 34.1736 13.1215C33.7717 12.5678 33.2444 12.1171 32.6348 11.8063Z" fill="black" fill-opacity="0.84"/>
<path d="M39.3291 39.5C39.3291 38.3624 39.1051 37.236 38.6697 36.185C38.2344 35.134 37.5963 34.179 36.7919 33.3746C35.9875 32.5703 35.0326 31.9322 33.9816 31.4968C32.9306 31.0615 31.8042 30.8374 30.6666 30.8374V26.5C32.1444 26.5 33.6097 26.752 34.9999 27.2435C35.2157 27.3198 35.4296 27.4018 35.6415 27.4896C37.2187 28.1429 38.6518 29.1005 39.859 30.3076C41.0661 31.5148 42.0237 32.9479 42.677 34.5251C42.7648 34.737 42.8468 34.9509 42.9231 35.1667C43.4146 36.5568 43.6666 38.0222 43.6666 39.5H39.3291Z" fill="black" fill-opacity="0.84"/>
<path d="M30.6666 39.5H26.3333C26.3333 33.5169 21.483 28.6667 15.4999 28.6667C9.51683 28.6667 4.66659 33.5169 4.66659 39.5H0.333252C0.333252 31.1237 7.1236 24.3333 15.4999 24.3333C23.8762 24.3333 30.6666 31.1237 30.6666 39.5Z" fill="black" fill-opacity="0.84"/>
</svg>
