
<svg width="47" height="47" viewBox="0 0 47 47" fill="none" xmlns="http://www.w3.org/2000/svg">
<path d="M25 12V10.125C25 7.79529 25 6.63044 24.6194 5.71158C24.1119 4.48644 23.1386 3.51307 21.9134 3.0056C20.9946 2.625 19.8297 2.625 17.5 2.625V2.625C15.1703 2.625 14.0054 2.625 13.0866 3.0056C11.8614 3.51307 10.8881 4.48644 10.3806 5.71158C10 6.63044 10 7.79529 10 10.125V12" stroke="#050520" stroke-width="4" stroke-linecap="round"/>
<path fill-rule="evenodd" clip-rule="evenodd" d="M1.50368 11.0037C0.625 11.8824 0.625 13.2966 0.625 16.125V30.25C0.625 34.0212 0.625 35.9069 1.79657 37.0784C2.96815 38.25 4.85376 38.25 8.625 38.25H26.375C30.1462 38.25 32.0319 38.25 33.2034 37.0784C34.375 35.9069 34.375 34.0212 34.375 30.25V16.125C34.375 13.2966 34.375 11.8824 33.4963 11.0037C32.6176 10.125 31.2034 10.125 28.375 10.125H6.625C3.79657 10.125 2.38236 10.125 1.50368 11.0037ZM16.5 26V26.7353C14.9843 26.3012 13.875 24.9052 13.875 23.25C13.875 21.248 15.498 19.625 17.5 19.625C19.502 19.625 21.125 21.248 21.125 23.25C21.125 24.9052 20.0157 26.3012 18.5 26.7353V26H16.5ZM11.875 23.25C11.875 26.0153 13.8705 28.3146 16.5 28.7864V31.625H18.5V28.7864C21.1295 28.3146 23.125 26.0153 23.125 23.25C23.125 20.1434 20.6066 17.625 17.5 17.625C14.3934 17.625 11.875 20.1434 11.875 23.25Z" fill="#050520"/>
</svg>
