<svg width="48" height="34" viewBox="0 0 48 34" fill="none" xmlns="http://www.w3.org/2000/svg">
<path d="M2.55111 21.1927L0.551112 21.1927L0.551112 23.1927L2.55111 23.1927L2.55111 21.1927ZM19.286 7.28628C20.067 6.50523 20.067 5.2389 19.286 4.45785C18.5049 3.6768 17.2386 3.6768 16.4575 4.45785L19.286 7.28628ZM0.551111 8.93619L0.551112 21.1927L4.55111 21.1927L4.55111 8.93619L0.551111 8.93619ZM2.55111 23.1927L14.8076 23.1927L14.8076 19.1927L2.55111 19.1927L2.55111 23.1927ZM3.96533 22.6069L19.286 7.28628L16.4575 4.45785L1.1369 19.7785L3.96533 22.6069Z" fill="black" fill-opacity="0.84"/>
<path d="M45.4491 2.80795L45.4491 0.807945L47.4491 0.807945L47.4491 2.80794L45.4491 2.80795ZM17.754 33.3314C16.973 34.1124 15.7067 34.1124 14.9256 33.3314C14.1446 32.5503 14.1446 31.284 14.9256 30.503L17.754 33.3314ZM33.1925 0.807947L45.4491 0.807945L45.4491 4.80795L33.1925 4.80795L33.1925 0.807947ZM47.4491 2.80794L47.4491 15.0645L43.4491 15.0645L43.4491 2.80795L47.4491 2.80794ZM46.8633 4.22216L17.754 33.3314L14.9256 30.503L44.0348 1.39373L46.8633 4.22216Z" fill="black" fill-opacity="0.84"/>
</svg>
