<svg width="47" height="47" viewBox="0 0 47 47" fill="none" xmlns="http://www.w3.org/2000/svg">
<path fill-rule="evenodd" clip-rule="evenodd" d="M6.58579 8.58579C6 9.17157 6 10.1144 6 12V35C6 38.7712 6 40.6569 7.17157 41.8284C8.34315 43 10.2288 43 14 43H33C36.7712 43 38.6569 43 39.8284 41.8284C41 40.6569 41 38.7712 41 35V12C41 10.1144 41 9.17157 40.4142 8.58579C39.8284 8 38.8856 8 37 8H10C8.11438 8 7.17157 8 6.58579 8.58579ZM19.625 23.5C19.625 22.3955 18.7296 21.5 17.625 21.5C16.5204 21.5 15.625 22.3955 15.625 23.5V27.4167C15.625 28.5213 16.5204 29.4167 17.625 29.4167C18.7296 29.4167 19.625 28.5213 19.625 27.4167V23.5ZM31.375 23.5C31.375 22.3955 30.4796 21.5 29.375 21.5C28.2704 21.5 27.375 22.3955 27.375 23.5V27.4167C27.375 28.5213 28.2704 29.4167 29.375 29.4167C30.4796 29.4167 31.375 28.5213 31.375 27.4167V23.5Z" fill="#050520"/>
</svg>