<svg width="44" height="44" viewBox="0 0 44 44" fill="none" xmlns="http://www.w3.org/2000/svg">
<path d="M21.6667 43.3333C9.7005 43.3333 0 33.6328 0 21.6667C0 9.7005 9.7005 0 21.6667 0C33.6328 0 43.3333 9.7005 43.3333 21.6667C43.3202 33.6274 33.6274 43.3202 21.6667 43.3333ZM21.632 39H21.6667C31.2362 38.9904 38.9875 31.2276 38.9827 21.658C38.9779 12.0885 31.2189 4.33334 21.6493 4.33334C12.0798 4.33334 4.32079 12.0885 4.316 21.658C4.31122 31.2276 12.0625 38.9904 21.632 39ZM17.3333 32.5L8.66667 23.8333L11.7217 20.7783L17.3333 26.3683L31.6117 12.09L34.6667 15.1667L17.3333 32.5Z" fill="black" fill-opacity="0.84"/>
</svg>
