<svg width="112" height="24" viewBox="0 0 112 24" fill="none" xmlns="http://www.w3.org/2000/svg">
<path d="M5.40226 7.03751L4.04184 9.79584L0.998089 10.2396C0.452256 10.3188 0.233506 10.9917 0.629339 11.3771L2.83142 13.5229L2.31059 16.5542C2.21684 17.1021 2.79392 17.5125 3.27726 17.2563L6.00017 15.825L8.72309 17.2563C9.20642 17.5104 9.78351 17.1021 9.68976 16.5542L9.16892 13.5229L11.371 11.3771C11.7668 10.9917 11.5481 10.3188 11.0023 10.2396L7.95851 9.79584L6.59809 7.03751C6.35434 6.54584 5.64809 6.53959 5.40226 7.03751Z" fill="#4EAE12"/>
<path d="M25.7536 14.522C25.7536 14.326 25.7256 14.1487 25.6696 13.99C25.6136 13.822 25.5109 13.654 25.3616 13.486C25.2123 13.318 25.0116 13.1453 24.7596 12.968C24.5169 12.7813 24.1996 12.5807 23.8076 12.366C23.4436 12.1607 23.1356 11.96 22.8836 11.764C22.6316 11.568 22.4216 11.3627 22.2536 11.148C22.0949 10.9333 21.9783 10.7 21.9036 10.448C21.8383 10.196 21.8056 9.916 21.8056 9.608C21.8056 9.216 21.8849 8.86133 22.0436 8.544C22.2023 8.22667 22.4263 7.956 22.7156 7.732C23.0049 7.508 23.3503 7.33533 23.7516 7.214C24.1529 7.09267 24.5963 7.032 25.0816 7.032C25.6696 7.032 26.1969 7.10667 26.6636 7.256C27.1396 7.396 27.5876 7.58733 28.0076 7.83L27.3216 8.922C26.9856 8.70733 26.6309 8.53 26.2576 8.39C25.8936 8.25 25.4643 8.18 24.9696 8.18C24.4096 8.18 23.9616 8.30133 23.6256 8.544C23.2989 8.77733 23.1356 9.08533 23.1356 9.468C23.1356 9.64533 23.1636 9.80867 23.2196 9.958C23.2756 10.1073 23.3643 10.252 23.4856 10.392C23.6163 10.532 23.7889 10.6767 24.0036 10.826C24.2183 10.9753 24.4889 11.134 24.8156 11.302C25.2729 11.5447 25.6509 11.7873 25.9496 12.03C26.2483 12.2633 26.4816 12.5013 26.6496 12.744C26.8269 12.9867 26.9483 13.2433 27.0136 13.514C27.0789 13.7847 27.1116 14.0787 27.1116 14.396C27.1116 14.8253 27.0276 15.2127 26.8596 15.558C26.6916 15.9033 26.4536 16.1973 26.1456 16.44C25.8376 16.6733 25.4689 16.8553 25.0396 16.986C24.6103 17.1073 24.1389 17.168 23.6256 17.168C22.9536 17.168 22.3469 17.0793 21.8056 16.902C21.2643 16.7153 20.7883 16.4587 20.3776 16.132L21.2456 15.054C21.5629 15.3433 21.9316 15.5767 22.3516 15.754C22.7809 15.922 23.2523 16.006 23.7656 16.006C24.3723 16.006 24.8529 15.8753 25.2076 15.614C25.5716 15.3433 25.7536 14.9793 25.7536 14.522ZM27.5045 16.482L32.8805 7.2H34.3785L36.5205 16.846L35.2465 17.14L34.6585 14.34H30.1225L28.5685 17.112L27.5045 16.482ZM30.7525 13.22H34.4205L33.4265 8.502L30.7525 13.22ZM39.4897 7.2H40.8197L39.3077 15.81H43.8017L43.5917 17H37.7677L39.4897 7.2ZM46.6264 7.2H52.4364L52.2404 8.348H47.7464L47.2284 11.33H51.0784L50.8824 12.45H47.0324L46.4304 15.852H50.9104L50.7144 17H44.9044L46.6264 7.2ZM56.6896 17L58.4116 7.2H59.7416L58.0196 17H56.6896ZM65.32 14.522C65.32 14.326 65.292 14.1487 65.236 13.99C65.18 13.822 65.0773 13.654 64.928 13.486C64.7787 13.318 64.578 13.1453 64.326 12.968C64.0833 12.7813 63.766 12.5807 63.374 12.366C63.01 12.1607 62.702 11.96 62.45 11.764C62.198 11.568 61.988 11.3627 61.82 11.148C61.6613 10.9333 61.5447 10.7 61.47 10.448C61.4047 10.196 61.372 9.916 61.372 9.608C61.372 9.216 61.4513 8.86133 61.61 8.544C61.7687 8.22667 61.9927 7.956 62.282 7.732C62.5713 7.508 62.9167 7.33533 63.318 7.214C63.7193 7.09267 64.1627 7.032 64.648 7.032C65.236 7.032 65.7633 7.10667 66.23 7.256C66.706 7.396 67.154 7.58733 67.574 7.83L66.888 8.922C66.552 8.70733 66.1973 8.53 65.824 8.39C65.46 8.25 65.0307 8.18 64.536 8.18C63.976 8.18 63.528 8.30133 63.192 8.544C62.8653 8.77733 62.702 9.08533 62.702 9.468C62.702 9.64533 62.73 9.80867 62.786 9.958C62.842 10.1073 62.9307 10.252 63.052 10.392C63.1827 10.532 63.3553 10.6767 63.57 10.826C63.7847 10.9753 64.0553 11.134 64.382 11.302C64.8393 11.5447 65.2173 11.7873 65.516 12.03C65.8147 12.2633 66.048 12.5013 66.216 12.744C66.3933 12.9867 66.5147 13.2433 66.58 13.514C66.6453 13.7847 66.678 14.0787 66.678 14.396C66.678 14.8253 66.594 15.2127 66.426 15.558C66.258 15.9033 66.02 16.1973 65.712 16.44C65.404 16.6733 65.0353 16.8553 64.606 16.986C64.1767 17.1073 63.7053 17.168 63.192 17.168C62.52 17.168 61.9133 17.0793 61.372 16.902C60.8307 16.7153 60.3547 16.4587 59.944 16.132L60.812 15.054C61.1293 15.3433 61.498 15.5767 61.918 15.754C62.3473 15.922 62.8187 16.006 63.332 16.006C63.9387 16.006 64.4193 15.8753 64.774 15.614C65.138 15.3433 65.32 14.9793 65.32 14.522ZM77.4842 8.18C76.8868 8.18 76.3502 8.31067 75.8742 8.572C75.4075 8.824 75.0108 9.16467 74.6842 9.594C74.3575 10.0233 74.1055 10.518 73.9282 11.078C73.7602 11.6287 73.6762 12.198 73.6762 12.786C73.6762 13.234 73.7368 13.654 73.8582 14.046C73.9795 14.438 74.1568 14.7833 74.3902 15.082C74.6328 15.3713 74.9315 15.6 75.2862 15.768C75.6408 15.936 76.0515 16.02 76.5182 16.02C77.1155 16.02 77.6475 15.894 78.1142 15.642C78.5902 15.3807 78.9915 15.0353 79.3182 14.606C79.6448 14.1767 79.8922 13.6867 80.0602 13.136C80.2375 12.576 80.3262 12.002 80.3262 11.414C80.3262 10.966 80.2655 10.546 80.1442 10.154C80.0228 9.762 79.8408 9.42133 79.5982 9.132C79.3648 8.83333 79.0708 8.6 78.7162 8.432C78.3615 8.264 77.9508 8.18 77.4842 8.18ZM76.4062 17.168C75.7435 17.168 75.1602 17.056 74.6562 16.832C74.1522 16.608 73.7228 16.3047 73.3682 15.922C73.0228 15.5393 72.7615 15.0867 72.5842 14.564C72.4068 14.0413 72.3182 13.4767 72.3182 12.87C72.3182 12.1233 72.4348 11.4 72.6682 10.7C72.9108 10 73.2562 9.37933 73.7042 8.838C74.1522 8.28733 74.7028 7.84867 75.3562 7.522C76.0095 7.19533 76.7562 7.032 77.5962 7.032C78.2495 7.032 78.8282 7.144 79.3322 7.368C79.8455 7.592 80.2748 7.89533 80.6202 8.278C80.9748 8.66067 81.2408 9.118 81.4182 9.65C81.5955 10.1727 81.6842 10.7327 81.6842 11.33C81.6842 12.0767 81.5628 12.8 81.3202 13.5C81.0868 14.2 80.7462 14.8253 80.2982 15.376C79.8502 15.9173 79.2995 16.3513 78.6462 16.678C77.9928 17.0047 77.2462 17.168 76.4062 17.168ZM84.2781 7.34C84.6328 7.26533 85.0108 7.20467 85.4121 7.158C85.8134 7.11133 86.2661 7.088 86.7701 7.088C87.3394 7.088 87.8341 7.16733 88.2541 7.326C88.6834 7.48467 89.0381 7.69467 89.3181 7.956C89.5981 8.21733 89.8081 8.52067 89.9481 8.866C90.0881 9.202 90.1581 9.55667 90.1581 9.93C90.1581 10.5087 90.0461 11.0173 89.8221 11.456C89.6074 11.8853 89.3088 12.2493 88.9261 12.548C88.5434 12.8373 88.0861 13.0567 87.5541 13.206C87.0314 13.3553 86.4574 13.43 85.8321 13.43C85.6081 13.43 85.3841 13.4207 85.1601 13.402C84.9454 13.374 84.7448 13.3367 84.5581 13.29L83.9141 17H82.5841L84.2781 7.34ZM86.6301 8.194C86.3781 8.194 86.1541 8.20333 85.9581 8.222C85.7714 8.24067 85.5988 8.264 85.4401 8.292L84.7541 12.17C84.9408 12.226 85.1414 12.268 85.3561 12.296C85.5801 12.3147 85.7994 12.324 86.0141 12.324C86.5181 12.324 86.9474 12.268 87.3021 12.156C87.6568 12.044 87.9508 11.89 88.1841 11.694C88.4174 11.498 88.5854 11.2647 88.6881 10.994C88.8001 10.714 88.8561 10.4107 88.8561 10.084C88.8561 9.524 88.6601 9.07133 88.2681 8.726C87.8854 8.37133 87.3394 8.194 86.6301 8.194ZM92.1401 7.2H97.9501L97.7541 8.348H93.2601L92.7421 11.33H96.5921L96.3961 12.45H92.5461L91.9441 15.852H96.4241L96.2281 17H90.4181L92.1401 7.2ZM100.694 8.824L99.266 17H98.006L99.728 7.2H101.492L104.362 15.432L105.818 7.2H107.078L105.356 17H103.62L100.694 8.824ZM109.866 6.794H111.266L110.65 10.28L109.796 14.102H108.76L109.25 10.28L109.866 6.794ZM108.844 17.168C108.573 17.168 108.359 17.0887 108.2 16.93C108.051 16.7713 107.976 16.5847 107.976 16.37C107.976 16.0247 108.079 15.7587 108.284 15.572C108.499 15.3853 108.741 15.292 109.012 15.292C109.283 15.292 109.493 15.3713 109.642 15.53C109.801 15.6887 109.88 15.8753 109.88 16.09C109.88 16.4353 109.773 16.7013 109.558 16.888C109.353 17.0747 109.115 17.168 108.844 17.168Z" fill="#4EAE12"/>
</svg>
