<svg width="163" height="12" viewBox="0 0 163 12" fill="none" xmlns="http://www.w3.org/2000/svg">
<path d="M5.40226 1.03751L4.04184 3.79584L0.998089 4.23959C0.452256 4.31876 0.233506 4.99168 0.629339 5.37709L2.83142 7.52293L2.31059 10.5542C2.21684 11.1021 2.79392 11.5125 3.27726 11.2563L6.00017 9.82501L8.72309 11.2563C9.20642 11.5104 9.78351 11.1021 9.68976 10.5542L9.16892 7.52293L11.371 5.37709C11.7668 4.99168 11.5481 4.31876 11.0023 4.23959L7.95851 3.79584L6.59809 1.03751C6.35434 0.545843 5.64809 0.539593 5.40226 1.03751Z" fill="#4EAE12"/>
<path d="M24.5355 11.161C23.3922 11.161 22.4798 10.748 21.7985 9.922C21.1218 9.09133 20.7835 7.843 20.7835 6.177C20.7835 5.34633 20.8932 4.62067 21.1125 4C21.3365 3.37933 21.6398 2.86133 22.0225 2.446C22.4052 2.03067 22.8368 1.72033 23.3175 1.515C23.7982 1.30967 24.2975 1.207 24.8155 1.207C25.4455 1.207 25.9682 1.298 26.3835 1.48C26.7988 1.65733 27.1955 1.91867 27.5735 2.264L26.8385 3.027C26.2645 2.49033 25.5925 2.222 24.8225 2.222C24.3558 2.222 23.9125 2.34567 23.4925 2.593C23.0772 2.84033 22.7388 3.251 22.4775 3.825C22.2162 4.399 22.0855 5.183 22.0855 6.177C22.0855 7.577 22.3025 8.58733 22.7365 9.208C23.1705 9.82867 23.8075 10.139 24.6475 10.139C25.3008 10.139 25.9122 9.985 26.4815 9.677V6.737H24.5845L24.4375 5.729H27.6855V10.321C27.2515 10.559 26.7872 10.7597 26.2925 10.923C25.8025 11.0817 25.2168 11.161 24.5355 11.161ZM35.926 1.361V7.878C35.926 8.52667 35.7953 9.09833 35.534 9.593C35.2727 10.0877 34.9017 10.4727 34.421 10.748C33.9403 11.0233 33.3757 11.161 32.727 11.161C32.0643 11.161 31.495 11.0233 31.019 10.748C30.5477 10.468 30.186 10.083 29.934 9.593C29.682 9.09833 29.556 8.52667 29.556 7.878V1.361H30.76V7.92C30.76 8.65267 30.9303 9.201 31.271 9.565C31.6163 9.929 32.1017 10.111 32.727 10.111C33.357 10.111 33.8423 9.929 34.183 9.565C34.5283 9.201 34.701 8.65267 34.701 7.92V1.361H35.926ZM39.9105 2.355V5.603H43.4805V6.604H39.9105V10.027H44.2925V11H38.6925V1.361H44.1665L44.0265 2.355H39.9105ZM52.8411 8.333C52.8411 9.16367 52.5331 9.84267 51.9171 10.37C51.3057 10.8973 50.4401 11.161 49.3201 11.161C48.6154 11.161 47.9761 11.0537 47.4021 10.839C46.8327 10.6243 46.3451 10.321 45.9391 9.929L46.6601 9.117C46.9914 9.42967 47.3741 9.67933 47.8081 9.866C48.2421 10.048 48.7531 10.139 49.3411 10.139C49.7331 10.139 50.0994 10.076 50.4401 9.95C50.7807 9.81933 51.0561 9.62333 51.2661 9.362C51.4761 9.096 51.5811 8.76 51.5811 8.354C51.5811 8.046 51.5204 7.78233 51.3991 7.563C51.2777 7.339 51.0631 7.143 50.7551 6.975C50.4471 6.80233 50.0177 6.63433 49.4671 6.471C48.8324 6.28433 48.2817 6.07433 47.8151 5.841C47.3531 5.603 46.9937 5.31367 46.7371 4.973C46.4851 4.62767 46.3591 4.19833 46.3591 3.685C46.3591 3.20433 46.4921 2.77733 46.7581 2.404C47.0241 2.03067 47.3904 1.739 47.8571 1.529C48.3284 1.31433 48.8697 1.207 49.4811 1.207C50.1484 1.207 50.7271 1.30267 51.2171 1.494C51.7117 1.68067 52.1597 1.95133 52.5611 2.306L51.8471 3.097C51.5017 2.79367 51.1307 2.572 50.7341 2.432C50.3374 2.292 49.9337 2.222 49.5231 2.222C48.9957 2.222 48.5431 2.33867 48.1651 2.572C47.7871 2.80533 47.5981 3.16233 47.5981 3.643C47.5981 3.923 47.6727 4.16333 47.8221 4.364C47.9714 4.56 48.2234 4.742 48.5781 4.91C48.9327 5.078 49.4157 5.25067 50.0271 5.428C50.5264 5.57267 50.9884 5.75467 51.4131 5.974C51.8424 6.18867 52.1877 6.48267 52.4491 6.856C52.7104 7.22467 52.8411 7.717 52.8411 8.333ZM58.5056 2.404V11H57.2946V2.404H54.2846V1.361H61.5576L61.4316 2.404H58.5056ZM64.0161 11V1.361H65.2341V9.915H69.6301L69.4901 11H64.0161ZM77.4717 1.361V2.334H75.3297V10.027H77.4717V11H71.9557V10.027H74.0977V2.334H71.9557V1.361H77.4717ZM86.4192 8.333C86.4192 9.16367 86.1112 9.84267 85.4952 10.37C84.8839 10.8973 84.0182 11.161 82.8982 11.161C82.1935 11.161 81.5542 11.0537 80.9802 10.839C80.4109 10.6243 79.9232 10.321 79.5172 9.929L80.2382 9.117C80.5695 9.42967 80.9522 9.67933 81.3862 9.866C81.8202 10.048 82.3312 10.139 82.9192 10.139C83.3112 10.139 83.6775 10.076 84.0182 9.95C84.3589 9.81933 84.6342 9.62333 84.8442 9.362C85.0542 9.096 85.1592 8.76 85.1592 8.354C85.1592 8.046 85.0985 7.78233 84.9772 7.563C84.8559 7.339 84.6412 7.143 84.3332 6.975C84.0252 6.80233 83.5959 6.63433 83.0452 6.471C82.4105 6.28433 81.8599 6.07433 81.3932 5.841C80.9312 5.603 80.5719 5.31367 80.3152 4.973C80.0632 4.62767 79.9372 4.19833 79.9372 3.685C79.9372 3.20433 80.0702 2.77733 80.3362 2.404C80.6022 2.03067 80.9685 1.739 81.4352 1.529C81.9065 1.31433 82.4479 1.207 83.0592 1.207C83.7265 1.207 84.3052 1.30267 84.7952 1.494C85.2899 1.68067 85.7379 1.95133 86.1392 2.306L85.4252 3.097C85.0799 2.79367 84.7089 2.572 84.3122 2.432C83.9155 2.292 83.5119 2.222 83.1012 2.222C82.5739 2.222 82.1212 2.33867 81.7432 2.572C81.3652 2.80533 81.1762 3.16233 81.1762 3.643C81.1762 3.923 81.2509 4.16333 81.4002 4.364C81.5495 4.56 81.8015 4.742 82.1562 4.91C82.5109 5.078 82.9939 5.25067 83.6052 5.428C84.1045 5.57267 84.5665 5.75467 84.9912 5.974C85.4205 6.18867 85.7659 6.48267 86.0272 6.856C86.2885 7.22467 86.4192 7.717 86.4192 8.333ZM92.0837 2.404V11H90.8727V2.404H87.8627V1.361H95.1357L95.0097 2.404H92.0837ZM111.05 1.361V2.334H108.908V10.027H111.05V11H105.534V10.027H107.676V2.334H105.534V1.361H111.05ZM119.997 8.333C119.997 9.16367 119.689 9.84267 119.073 10.37C118.462 10.8973 117.596 11.161 116.476 11.161C115.772 11.161 115.132 11.0537 114.558 10.839C113.989 10.6243 113.501 10.321 113.095 9.929L113.816 9.117C114.148 9.42967 114.53 9.67933 114.964 9.866C115.398 10.048 115.909 10.139 116.497 10.139C116.889 10.139 117.256 10.076 117.596 9.95C117.937 9.81933 118.212 9.62333 118.422 9.362C118.632 9.096 118.737 8.76 118.737 8.354C118.737 8.046 118.677 7.78233 118.555 7.563C118.434 7.339 118.219 7.143 117.911 6.975C117.603 6.80233 117.174 6.63433 116.623 6.471C115.989 6.28433 115.438 6.07433 114.971 5.841C114.509 5.603 114.15 5.31367 113.893 4.973C113.641 4.62767 113.515 4.19833 113.515 3.685C113.515 3.20433 113.648 2.77733 113.914 2.404C114.18 2.03067 114.547 1.739 115.013 1.529C115.485 1.31433 116.026 1.207 116.637 1.207C117.305 1.207 117.883 1.30267 118.373 1.494C118.868 1.68067 119.316 1.95133 119.717 2.306L119.003 3.097C118.658 2.79367 118.287 2.572 117.89 2.432C117.494 2.292 117.09 2.222 116.679 2.222C116.152 2.222 115.699 2.33867 115.321 2.572C114.943 2.80533 114.754 3.16233 114.754 3.643C114.754 3.923 114.829 4.16333 114.978 4.364C115.128 4.56 115.38 4.742 115.734 4.91C116.089 5.078 116.572 5.25067 117.183 5.428C117.683 5.57267 118.145 5.75467 118.569 5.974C118.999 6.18867 119.344 6.48267 119.605 6.856C119.867 7.22467 119.997 7.717 119.997 8.333ZM137.024 6.191C137.024 7.16633 136.891 8.02733 136.625 8.774C136.359 9.52067 135.963 10.1063 135.435 10.531C134.913 10.951 134.259 11.161 133.475 11.161C132.691 11.161 132.036 10.9557 131.508 10.545C130.986 10.1297 130.591 9.551 130.325 8.809C130.059 8.067 129.926 7.199 129.926 6.205C129.926 5.22967 130.059 4.36633 130.325 3.615C130.591 2.86367 130.986 2.27567 131.508 1.851C132.036 1.42167 132.691 1.207 133.475 1.207C134.259 1.207 134.913 1.41467 135.435 1.83C135.963 2.24533 136.359 2.82867 136.625 3.58C136.891 4.32667 137.024 5.197 137.024 6.191ZM135.75 6.191C135.75 4.90767 135.573 3.92533 135.218 3.244C134.868 2.56267 134.287 2.222 133.475 2.222C132.663 2.222 132.08 2.565 131.725 3.251C131.375 3.937 131.2 4.92167 131.2 6.205C131.2 7.48833 131.382 8.466 131.746 9.138C132.11 9.80533 132.687 10.139 133.475 10.139C134.287 10.139 134.868 9.803 135.218 9.131C135.573 8.45433 135.75 7.47433 135.75 6.191ZM145.468 4.322C145.468 5.07333 145.307 5.67533 144.985 6.128C144.668 6.58067 144.229 6.90967 143.669 7.115C143.109 7.32033 142.465 7.423 141.737 7.423H140.505V11H139.287V1.361H141.751C142.899 1.361 143.804 1.60133 144.467 2.082C145.134 2.56267 145.468 3.30933 145.468 4.322ZM144.166 4.336C144.166 3.84133 144.068 3.447 143.872 3.153C143.676 2.859 143.405 2.649 143.06 2.523C142.719 2.39233 142.332 2.327 141.898 2.327H140.505V6.443H141.849C142.297 6.443 142.696 6.38233 143.046 6.261C143.396 6.13967 143.669 5.92733 143.865 5.624C144.066 5.316 144.166 4.88667 144.166 4.336ZM149.039 2.355V5.603H152.609V6.604H149.039V10.027H153.421V11H147.821V1.361H153.295L153.155 2.355H149.039ZM159.989 11L156.594 2.523C156.599 2.663 156.615 2.929 156.643 3.321C156.671 3.70833 156.697 4.15633 156.72 4.665C156.743 5.169 156.755 5.67067 156.755 6.17V11H155.628V1.361H157.273L160.724 9.873C160.719 9.73767 160.703 9.49033 160.675 9.131C160.647 8.767 160.621 8.33067 160.598 7.822C160.575 7.30867 160.563 6.76267 160.563 6.184V1.361H161.69V11H159.989Z" fill="#4EAE12"/>
</svg>
