<svg width="218" height="437" viewBox="0 0 218 437" fill="none" xmlns="http://www.w3.org/2000/svg">
<path d="M217 437V437C217 406.548 192.314 381.862 161.862 381.862L55.3562 381.862C25.3361 381.862 1 357.526 1 327.506V327.506C1 297.485 25.3361 273.149 55.3561 273.149L162.448 273.149C192.576 273.149 217 248.726 217 218.598V218.598C217 188.47 192.576 164.046 162.448 164.046L55.7472 164.046C25.5112 164.046 1.00001 139.535 1.00001 109.299V109.299C1.00001 79.0628 25.5112 54.5517 55.7472 54.5517L162.448 54.5517C192.576 54.5517 217 30.1281 217 0V0" stroke="white" stroke-linecap="round"/>
</svg>
