<svg width="632" height="230" viewBox="0 0 632 230" fill="none" xmlns="http://www.w3.org/2000/svg">
<path d="M631.151 1V1C587.18 1 551.535 36.6454 551.535 80.6162V150.513C551.535 193.86 516.395 229 473.048 229V229C429.701 229 394.561 193.86 394.561 150.513V79.7691C394.561 36.2661 359.295 1 315.792 1V1C272.289 1 237.023 36.2661 237.023 79.7691V149.949C237.023 193.607 201.63 229 157.971 229V229C114.313 229 78.92 193.607 78.92 149.949V79.7691C78.92 36.2661 43.6539 1 0.150879 1V1" stroke="white" stroke-linecap="round"/>
</svg>
