<svg width="27" height="25" viewBox="0 0 27 25" fill="none" xmlns="http://www.w3.org/2000/svg">
<path d="M24.7641 1L14.9956 8.24794L16.81 3.97175L24.7641 1Z" fill="#E2761B" stroke="#E2761B" stroke-linecap="round" stroke-linejoin="round"/>
<path d="M2.23584 1L11.9161 8.31659L10.1899 3.97175L2.23584 1Z" fill="#E4761B" stroke="#E4761B" stroke-linecap="round" stroke-linejoin="round"/>
<path d="M21.2529 17.8008L18.6538 21.7827L24.2148 23.3127L25.8037 17.8891L21.2529 17.8008Z" fill="#E4761B" stroke="#E4761B" stroke-linecap="round" stroke-linejoin="round"/>
<path d="M1.20605 17.8891L2.78511 23.3127L8.34611 21.7827L5.75686 17.8008L1.20605 17.8891Z" fill="#E4761B" stroke="#E4761B" stroke-linecap="round" stroke-linejoin="round"/>
<path d="M8.04181 11.0725L6.49219 13.4165L12.0042 13.6617L11.8178 7.72803L8.04181 11.0725Z" fill="#E4761B" stroke="#E4761B" stroke-linecap="round" stroke-linejoin="round"/>
<path d="M18.9579 11.0725L15.1231 7.65942L14.9956 13.6618L20.5076 13.4166L18.9579 11.0725Z" fill="#E4761B" stroke="#E4761B" stroke-linecap="round" stroke-linejoin="round"/>
<path d="M8.34619 21.7827L11.671 20.1644L8.80716 17.9282L8.34619 21.7827Z" fill="#E4761B" stroke="#E4761B" stroke-linecap="round" stroke-linejoin="round"/>
<path d="M15.3291 20.1644L18.6539 21.7827L18.193 17.9282L15.3291 20.1644Z" fill="#E4761B" stroke="#E4761B" stroke-linecap="round" stroke-linejoin="round"/>
<path d="M18.6534 21.7826L15.3286 20.1643L15.5934 22.3318L15.564 23.2439L18.6534 21.7826Z" fill="#D7C1B3" stroke="#D7C1B3" stroke-linecap="round" stroke-linejoin="round"/>
<path d="M8.3457 21.7826L11.4351 23.2439L11.4155 22.3318L11.6705 20.1643L8.3457 21.7826Z" fill="#D7C1B3" stroke="#D7C1B3" stroke-linecap="round" stroke-linejoin="round"/>
<path d="M11.4943 16.4963L8.72852 15.6823L10.6803 14.7898L11.4943 16.4963Z" fill="#233447" stroke="#233447" stroke-linecap="round" stroke-linejoin="round"/>
<path d="M15.5059 16.4963L16.3199 14.7898L18.2815 15.6823L15.5059 16.4963Z" fill="#233447" stroke="#233447" stroke-linecap="round" stroke-linejoin="round"/>
<path d="M8.34609 21.7825L8.82667 17.8005L5.75684 17.8888L8.34609 21.7825Z" fill="#CD6116" stroke="#CD6116" stroke-linecap="round" stroke-linejoin="round"/>
<path d="M18.1733 17.8005L18.6539 21.7825L21.253 17.8888L18.1733 17.8005Z" fill="#CD6116" stroke="#CD6116" stroke-linecap="round" stroke-linejoin="round"/>
<path d="M20.5076 13.4165L14.9956 13.6617L15.5056 16.4961L16.3197 14.7896L18.2812 15.6821L20.5076 13.4165Z" fill="#CD6116" stroke="#CD6116" stroke-linecap="round" stroke-linejoin="round"/>
<path d="M8.72836 15.6821L10.6801 14.7896L11.4941 16.4961L12.0042 13.6617L6.49219 13.4165L8.72836 15.6821Z" fill="#CD6116" stroke="#CD6116" stroke-linecap="round" stroke-linejoin="round"/>
<path d="M6.49268 13.4165L8.80731 17.9281L8.72885 15.6821L6.49268 13.4165Z" fill="#E4751F" stroke="#E4751F" stroke-linecap="round" stroke-linejoin="round"/>
<path d="M18.2816 15.6821L18.1934 17.9281L20.508 13.4165L18.2816 15.6821Z" fill="#E4751F" stroke="#E4751F" stroke-linecap="round" stroke-linejoin="round"/>
<path d="M12.0046 13.6616L11.4946 16.4961L12.1419 19.8405L12.2793 15.4368L12.0046 13.6616Z" fill="#E4751F" stroke="#E4751F" stroke-linecap="round" stroke-linejoin="round"/>
<path d="M14.9958 13.6616L14.731 15.427L14.8585 19.8405L15.5058 16.4961L14.9958 13.6616Z" fill="#E4751F" stroke="#E4751F" stroke-linecap="round" stroke-linejoin="round"/>
<path d="M15.5057 16.4962L14.8584 19.8406L15.3292 20.1643L18.193 17.9281L18.2813 15.6821L15.5057 16.4962Z" fill="#F6851B" stroke="#F6851B" stroke-linecap="round" stroke-linejoin="round"/>
<path d="M8.72852 15.6821L8.80698 17.9281L11.6708 20.1643L12.1416 19.8406L11.4943 16.4962L8.72852 15.6821Z" fill="#F6851B" stroke="#F6851B" stroke-linecap="round" stroke-linejoin="round"/>
<path d="M15.5647 23.2441L15.5941 22.332L15.3489 22.1162H11.6514L11.416 22.332L11.4356 23.2441L8.34619 21.7827L9.42505 22.6654L11.622 24.1856H15.3784L17.5753 22.6654L18.6542 21.7827L15.5647 23.2441Z" fill="#C0AD9E" stroke="#C0AD9E" stroke-linecap="round" stroke-linejoin="round"/>
<path d="M15.3293 20.1645L14.8585 19.8408H12.1418L11.671 20.1645L11.416 22.332L11.6514 22.1162H15.3489L15.5941 22.332L15.3293 20.1645Z" fill="#161616" stroke="#161616" stroke-linecap="round" stroke-linejoin="round"/>
<path d="M25.1761 8.71871L26 4.71714L24.7642 1L15.3291 8.00275L18.958 11.0726L24.0874 12.5732L25.2153 11.2491L24.7249 10.896L25.5096 10.1801L24.9113 9.7093L25.6959 9.11102L25.1761 8.71871Z" fill="#763D16" stroke="#763D16" stroke-linecap="round" stroke-linejoin="round"/>
<path d="M1 4.71714L1.83366 8.71871L1.30404 9.11102L2.08866 9.7093L1.49039 10.1801L2.27501 10.896L1.78462 11.2491L2.91251 12.5732L8.04198 11.0726L11.6709 8.00275L2.23578 1L1 4.71714Z" fill="#763D16" stroke="#763D16" stroke-linecap="round" stroke-linejoin="round"/>
<path d="M24.0873 12.5731L18.9579 11.0725L20.5075 13.4166L18.1929 17.9281L21.2529 17.8889H25.8037L24.0873 12.5731Z" fill="#F6851B" stroke="#F6851B" stroke-linecap="round" stroke-linejoin="round"/>
<path d="M8.04207 11.0725L2.91261 12.5731L1.20605 17.8889H5.75686L8.80707 17.9281L6.49244 13.4166L8.04207 11.0725Z" fill="#F6851B" stroke="#F6851B" stroke-linecap="round" stroke-linejoin="round"/>
<path d="M14.9957 13.6618L15.3292 8.00267L16.8102 3.97168H10.1899L11.6709 8.00267L12.0044 13.6618L12.1319 15.4468L12.1417 19.8406H14.8584L14.8682 15.4468L14.9957 13.6618Z" fill="#F6851B" stroke="#F6851B" stroke-linecap="round" stroke-linejoin="round"/>
</svg>
