<svg width="25" height="28" viewBox="0 0 25 28" fill="none" xmlns="http://www.w3.org/2000/svg">
<path fill-rule="evenodd" clip-rule="evenodd" d="M12.4999 0L24.9744 7V21L12.4999 28L0.0253906 21V7L12.4999 0Z" fill="url(#paint0_radial_665_1980)"/>
<path d="M7.58818 10.9947C10.2962 8.42104 14.6868 8.42104 17.3948 10.9947L17.7207 11.3045C17.8561 11.4331 17.8561 11.6418 17.7207 11.7705L16.6058 12.83C16.5381 12.8944 16.4284 12.8944 16.3607 12.83L15.9122 12.4038C14.023 10.6083 10.96 10.6083 9.07082 12.4038L8.59051 12.8603C8.52281 12.9246 8.41305 12.9246 8.34535 12.8603L7.23046 11.8007C7.09506 11.672 7.09506 11.4634 7.23046 11.3347L7.58818 10.9947ZM19.7072 13.1946L20.6993 14.1349C20.8346 14.2632 20.8346 14.4713 20.6993 14.5996L16.2262 18.8394C16.0908 18.9677 15.8714 18.9677 15.736 18.8394C15.736 18.8394 15.736 18.8394 15.736 18.8394L12.5613 15.8303C12.5275 15.7982 12.4726 15.7982 12.4388 15.8303C12.4388 15.8303 12.4388 15.8303 12.4388 15.8303L9.26413 18.8394C9.12876 18.9677 8.90928 18.9677 8.77392 18.8394C8.77391 18.8394 8.77391 18.8394 8.77391 18.8394L4.30074 14.5995C4.16538 14.4712 4.16538 14.2632 4.30074 14.1349L5.29276 13.1946C5.42812 13.0663 5.6476 13.0663 5.78297 13.1946L8.95771 16.2038C8.99155 16.2358 9.04642 16.2358 9.08026 16.2038C9.08026 16.2038 9.08026 16.2038 9.08026 16.2038L12.2548 13.1946C12.3902 13.0663 12.6097 13.0663 12.7451 13.1946C12.7451 13.1946 12.7451 13.1946 12.7451 13.1946L15.9198 16.2038C15.9536 16.2358 16.0085 16.2358 16.0423 16.2038L19.217 13.1946C19.3524 13.0663 19.5719 13.0663 19.7072 13.1946Z" fill="white"/>
<defs>
<radialGradient id="paint0_radial_665_1980" cx="0" cy="0" r="1" gradientUnits="userSpaceOnUse" gradientTransform="translate(0.0253906 14) scale(24.949 28)">
<stop stop-color="#5D9DF6"/>
<stop offset="1" stop-color="#006FFF"/>
</radialGradient>
</defs>
</svg>
