<svg width="24" height="24" viewBox="0 0 24 24" fill="none" xmlns="http://www.w3.org/2000/svg">
<path d="M9.44531 14.3203C8.79844 14.3203 8.27813 13.8 8.27813 13.1672C8.27813 12.5203 8.79844 12 9.44531 12C10.0828 12 10.5984 12.5203 10.5984 13.1672C10.5984 13.8047 10.0781 14.3203 9.44531 14.3203ZM23.625 12C23.625 18.4219 18.4219 23.625 12 23.625C5.57812 23.625 0.375 18.4219 0.375 12C0.375 5.57812 5.57812 0.375 12 0.375C18.4219 0.375 23.625 5.57812 23.625 12ZM17.4234 10.0688C16.9828 10.0688 16.5938 10.2516 16.3078 10.5375C15.2578 9.81094 13.8422 9.34219 12.2719 9.29062L13.0875 5.62031L15.6844 6.20625C15.6844 6.84375 16.2047 7.35938 16.8375 7.35938C17.4844 7.35938 18.0047 6.82969 18.0047 6.19219C18.0047 5.55469 17.4844 5.025 16.8375 5.025C16.3828 5.025 15.9938 5.29688 15.8016 5.67188L12.9328 5.03438C12.7922 4.99688 12.6469 5.1 12.6094 5.24063L11.7141 9.29062C10.1578 9.35625 8.75625 9.82031 7.70625 10.5469C7.42031 10.2469 7.01719 10.0688 6.57656 10.0688C4.94063 10.0688 4.40625 12.2672 5.90156 13.0125C5.85 13.2469 5.82187 13.4906 5.82187 13.7391C5.82187 16.2047 8.59688 18.2016 12.0094 18.2016C15.4359 18.2016 18.2109 16.2047 18.2109 13.7391C18.2109 13.4906 18.1828 13.2328 18.1219 12.9984C19.5891 12.2484 19.05 10.0688 17.4234 10.0688ZM14.1937 15.5156C13.3406 16.3687 10.6266 16.3547 9.80625 15.5156C9.70312 15.4125 9.52031 15.4125 9.41719 15.5156C9.3 15.6328 9.3 15.8156 9.41719 15.9188C10.4859 16.9875 13.5094 16.9875 14.5828 15.9188C14.7 15.8156 14.7 15.6328 14.5828 15.5156C14.4797 15.4125 14.2969 15.4125 14.1937 15.5156ZM14.5547 12C13.9172 12 13.4016 12.5203 13.4016 13.1672C13.4016 13.8047 13.9219 14.3203 14.5547 14.3203C15.2016 14.3203 15.7219 13.8 15.7219 13.1672C15.7219 12.5203 15.2063 12 14.5547 12Z" fill="white"/>
</svg>
