<svg width="24" height="24" viewBox="0 0 24 24" fill="none" xmlns="http://www.w3.org/2000/svg">
<path d="M12 0.375C5.57812 0.375 0.375 5.57812 0.375 12C0.375 18.4219 5.57812 23.625 12 23.625C18.4219 23.625 23.625 18.4219 23.625 12C23.625 5.57812 18.4219 0.375 12 0.375ZM17.7094 8.33906L15.8016 17.3297C15.6609 17.9672 15.2813 18.1219 14.7516 17.8219L11.8453 15.6797L10.4438 17.0297C10.2891 17.1844 10.1578 17.3156 9.85781 17.3156L10.0641 14.3578L15.45 9.49219C15.6844 9.28594 15.3984 9.16875 15.0891 9.375L8.43281 13.5656L5.56406 12.6703C4.94062 12.4734 4.92656 12.0469 5.69531 11.7469L16.9031 7.425C17.4234 7.2375 17.8781 7.55156 17.7094 8.33906Z" fill="white"/>
</svg>
